<svg width="195" height="29" viewBox="0 0 195 29" fill="currentColor" xmlns="http://www.w3.org/2000/svg" preserveAspectRatio="none">
<path d="M0 0V27.1989C0.487636 27.0301 0.933802 26.8239 1.06393 26.5803C2.76422 26.5698 4.59751 26.8124 3.42489 26.2561C3.69373 25.908 5.27533 26.0202 6.02323 26.0633C6.58094 26.3233 7.94232 26.7549 8.31698 26.6522C8.83322 27.361 10.1803 25.7286 10.4949 25.4341C10.4734 25.6576 12.7129 26.4431 13.0317 26.2484C11.9421 25.8936 13.0332 25.5128 15.3727 25.2097C14.8522 24.5306 16.6568 25.4581 17.7823 25.3536C17.9739 26.0585 19.9144 24.6707 20.3077 25.1877C20.9998 24.6918 22.9618 23.888 22.8302 24.5719C23.3322 24.7359 24.8237 25.2126 25.3742 24.7992C24.7979 25.1234 27.9111 26.3367 27.9111 25.7535C27.9111 25.1972 30.4308 24.4683 30.4308 25.8773C30.4308 24.5345 32.9362 26.1238 32.9362 26.1122C32.9362 25.9952 35.5273 25.1848 35.5273 25.3919C35.5273 26.2187 37.9455 26.9448 37.9455 26.3022C37.9455 25.6969 40.5138 26.166 40.5138 26.0959C40.5138 25.1253 43.0235 25.696 43.0235 26.2993C43.0235 26.682 45.7563 26.9937 45.7563 25.8427C45.7563 25.6183 48.04 26.3041 48.04 26.8191C48.04 27.0579 50.1979 28.7019 50.1979 28.1034C50.1979 28.1101 52.8563 28.5494 52.8563 28.2396C52.8563 28.8841 55.4046 29.1297 55.4046 28.935C55.4046 29.381 58.043 27.3351 58.043 27.4886C58.043 27.6248 60.5097 27.4972 60.5097 27.573C60.5097 27.3889 63.2568 27.6382 63.2568 27.83C63.2568 26.6187 64.4695 25.4696 64.4695 25.9204C64.4695 26.9179 66.7589 25.6202 66.7589 25.3382C66.7589 25.7516 69.25 25.1713 69.25 25.4879C69.25 26.4719 71.6939 25.1426 71.6939 25.8168C71.6939 26.3559 74.1678 25.8303 74.1678 25.5157C74.1678 25.6001 76.5731 24.6611 76.5731 24.944C76.5731 24.4213 79.1529 25.3747 79.1529 25.203C79.1529 25.1502 81.4352 23.9523 81.4352 23.6108C81.4352 23.5389 84.0393 25.015 84.0393 24.1173C84.0393 23.4603 86.5704 24.5009 86.5704 24.0866C86.5704 23.7211 89.1973 25.0869 89.1973 23.5284C89.1973 23.6943 91.5368 24.9431 91.5368 24.7014C91.5368 24.9402 94.1666 25.3593 94.1666 25.7679C94.1666 25.4495 97.2498 26.3463 97.2498 25.6854C97.2498 26.8757 100.134 27.2699 100.134 26.1736C100.134 26.5755 102.813 26.1084 102.813 25.8274C102.813 26.3386 105.346 25.9914 105.346 25.9741C105.346 26.6925 107.925 26.5247 107.925 26.5909C107.925 25.7574 110.41 25.9137 110.41 25.5771C110.41 25.79 113.15 27.1376 113.15 26.5151C113.15 26.7079 115.727 26.5467 115.727 26.258C115.727 25.132 118.211 25.7593 118.211 25.673C118.211 25.5464 120.478 24.2842 120.478 24.3829C120.478 24.1652 123.083 24.9258 123.083 24.3024C123.083 24.2947 126.02 26.4077 126.02 25.415C126.02 25.2538 128.175 23.1332 128.175 23.6233C128.175 23.9667 130.712 23.6425 130.712 23.1485C130.712 22.6651 133.392 23.115 133.392 23.0219C133.392 22.3419 136.122 23.6444 136.122 23.4411C136.122 23.256 138.81 23.5859 138.81 23.9638C138.81 23.749 141.42 23.6224 141.42 23.3317C141.42 23.1955 144.069 23.8717 144.069 23.7797C144.069 23.5993 146.721 24.5546 146.721 23.1188C146.721 23.2876 149.32 23.4209 149.32 24.2832C149.32 24.8472 152.029 23.1648 152.029 23.0641C152.029 21.7501 154.612 23.4315 154.612 24.005C154.612 23.1092 157.288 24.357 157.288 23.6214C157.288 23.8075 159.873 25.0908 159.873 24.3609C159.873 23.8391 162.391 23.9561 162.391 24.0703C162.391 23.6972 164.951 23.3154 164.951 23.2895C164.951 21.4902 167.442 22.8426 167.442 23.3202C167.442 23.8545 169.81 25.0745 169.81 24.8222C169.81 25.9386 172.35 25.0821 172.35 24.2765C172.35 25.1982 174.883 23.3538 174.883 23.8036C174.883 24.1921 177.344 24.6026 177.344 24.1882C177.344 24.6525 180.058 24.2784 179.835 24.2189C179.67 23.8689 182.745 24.2391 182.553 24.3877C181.508 24.4894 184.778 25.1023 185.184 24.897C185.784 25.7324 188.368 25.6231 187.87 25.0572C188.29 24.5949 190.964 25.7027 190.534 25.9415C191.159 26.0067 192.6 26.1612 193.335 25.743C193.436 25.8734 194.285 25.6097 195 25.3123V0H0Z" fill="currentColor"/>
</svg>
