<svg width="195" height="29" viewBox="0 0 195 29" fill="none" xmlns="http://www.w3.org/2000/svg" preserveAspectRatio="none">
<path d="M195 29V1.80106C194.512 1.96986 194.066 2.17608 193.936 2.4197C192.236 2.43025 190.402 2.18759 191.575 2.74388C191.306 3.09204 189.725 2.97983 188.977 2.93667C188.419 2.67675 187.058 2.24513 186.683 2.34776C186.167 1.63896 184.82 3.2714 184.505 3.56585C184.527 3.34238 182.287 2.55685 181.968 2.75156C183.058 3.10643 181.967 3.48721 179.627 3.79029C180.148 4.46935 178.343 3.54188 177.218 3.64642C177.026 2.94146 175.086 4.32932 174.692 3.81235C174 4.30822 172.038 5.11196 172.17 4.42811C171.668 4.26409 170.176 3.78741 169.626 4.20079C170.202 3.87661 167.089 2.66332 167.089 3.24647C167.089 3.80276 164.569 4.53169 164.569 3.12273C164.569 4.46551 162.064 2.87624 162.064 2.88775C162.064 3.00476 159.473 3.81523 159.473 3.60806C159.473 2.78129 157.054 2.05523 157.054 2.69785C157.054 3.30305 154.486 2.83404 154.486 2.90405C154.486 3.87469 151.977 3.30401 151.977 2.70072C151.977 2.31803 149.244 2.00631 149.244 3.15726C149.244 3.3817 146.96 2.69593 146.96 2.18087C146.96 1.94205 144.802 0.298102 144.802 0.896598C144.802 0.889884 142.144 0.450605 142.144 0.760403C142.144 0.11587 139.595 -0.129666 139.595 0.0650373C139.595 -0.380957 136.957 1.66487 136.957 1.5114C136.957 1.37521 134.49 1.50277 134.49 1.427C134.49 1.61115 131.743 1.36178 131.743 1.16995C131.743 2.38133 130.531 3.53036 130.531 3.07957C130.531 2.08208 128.241 3.37978 128.241 3.66177C128.241 3.24838 125.75 3.82866 125.75 3.51214C125.75 2.52808 123.306 3.85743 123.306 3.18316C123.306 2.64413 120.832 3.16974 120.832 3.48433C120.832 3.39993 118.427 4.33891 118.427 4.05597C118.427 4.5787 115.847 3.62532 115.847 3.797C115.847 3.84975 113.565 5.04771 113.565 5.38916C113.565 5.46109 110.961 3.98499 110.961 4.88274C110.961 5.53974 108.43 4.49908 108.43 4.91343C108.43 5.27886 105.803 3.91306 105.803 5.47164C105.803 5.30571 103.463 4.05693 103.463 4.29863C103.463 4.05981 100.833 3.64067 100.833 3.23208C100.833 3.55051 97.7502 2.65372 97.7502 3.31456C97.7502 2.12428 94.8659 1.73008 94.8659 2.82636C94.8659 2.42449 92.1875 2.89158 92.1875 3.17261C92.1875 2.66139 89.6535 3.0086 89.6535 3.02586C89.6535 2.30748 87.0752 2.47533 87.0752 2.40915C87.0752 3.24263 84.5898 3.08629 84.5898 3.42294C84.5898 3.21002 81.8499 1.86245 81.8499 2.48492C81.8499 2.29213 79.273 2.45327 79.273 2.74196C79.273 3.86798 76.7891 3.24071 76.7891 3.32703C76.7891 3.45364 74.5225 4.71585 74.5225 4.61706C74.5225 4.83478 71.917 4.07419 71.917 4.69763C71.917 4.7053 68.9797 2.59234 68.9797 3.58503C68.9797 3.74617 66.8247 5.8668 66.8247 5.37669C66.8247 5.03332 64.2879 5.3575 64.2879 5.85145C64.2879 6.33485 61.608 5.88502 61.608 5.97806C61.608 6.65808 58.8781 5.35558 58.8781 5.55892C58.8781 5.74403 56.1897 5.41409 56.1897 5.03619C56.1897 5.25104 53.5799 5.37765 53.5799 5.66826C53.5799 5.80446 50.9315 5.12827 50.9315 5.22035C50.9315 5.40066 48.2788 4.44538 48.2788 5.88119C48.2788 5.71238 45.6805 5.57906 45.6805 4.71681C45.6805 4.15284 42.9706 5.83515 42.9706 5.93586C42.9706 7.24986 40.388 5.56851 40.388 4.99495C40.388 5.89078 37.7124 4.64295 37.7124 5.37861C37.7124 5.19253 35.1269 3.90922 35.1269 4.63911C35.1269 5.16088 32.6087 5.04387 32.6087 4.92973C32.6087 5.30283 30.049 5.68457 30.049 5.71046C30.049 7.50979 27.5579 6.15741 27.5579 5.67977C27.5579 5.14553 25.1898 3.92553 25.1898 4.17778C25.1898 3.06135 22.65 3.91786 22.65 4.72352C22.65 3.8018 20.1175 5.6462 20.1175 5.19637C20.1175 4.80792 17.6564 4.39741 17.6564 4.81176C17.6564 4.34754 14.9423 4.7216 15.1653 4.78107C15.3298 5.13115 12.2553 4.76092 12.4469 4.61226C13.4922 4.51059 10.2218 3.89771 9.81564 4.10296C9.21647 3.26756 6.63244 3.3769 7.13008 3.94279C6.70966 4.40509 4.03552 3.2973 4.46595 3.05848C3.84103 2.99326 2.39958 2.83884 1.66455 3.25702C1.56445 3.12658 0.715016 3.39033 7.04185e-06 3.68766V29H195Z" fill="currentColor"/>
</svg>
